<svg width="373" height="373" viewBox="0 0 373 373" fill="none" xmlns="http://www.w3.org/2000/svg">
<mask id="mask0_2318_109" style="mask-type:alpha" maskUnits="userSpaceOnUse" x="0" y="0" width="373" height="373">
<path d="M319.899 25.9028C284.931 3.54489 233.125 0 186.5 0C139.875 0 88.0694 3.54489 53.1007 25.9028C41.9163 33.0537 33.0537 41.9163 25.9028 53.1007C3.54489 88.0694 0 139.875 0 186.5C0 233.125 3.54489 284.931 25.9028 319.899C33.0537 331.084 41.9163 339.946 53.1007 347.097C88.0694 369.455 139.875 373 186.5 373C233.125 373 284.931 369.455 319.899 347.097C331.084 339.946 339.946 331.084 347.097 319.899C369.455 284.931 373 233.125 373 186.5C373 139.875 369.455 88.0694 347.097 53.1007C339.946 41.9163 331.084 33.0537 319.899 25.9028Z" fill="#FF9800"/>
</mask>
<g mask="url(#mask0_2318_109)">
<rect x="-30" y="-30" width="432" height="432" fill="#7AACFF"/>
<path d="M124.899 278.138C124.899 275.377 127.138 273.138 129.899 273.138H243.303C246.065 273.138 248.303 275.377 248.303 278.138V289.277C248.303 292.038 246.065 294.277 243.303 294.277H129.899C127.138 294.277 124.899 292.038 124.899 289.277V278.138Z" fill="#183A71"/>
<path d="M104 241.9C104 239.139 106.239 236.9 109 236.9H118.904C121.665 236.9 123.904 239.139 123.904 241.9V252.033C123.904 254.794 121.665 257.033 118.904 257.033H109C106.239 257.033 104 254.794 104 252.033V241.9Z" fill="#183A71"/>
<path d="M140.822 241.9C140.822 239.139 143.061 236.9 145.822 236.9H155.726C158.488 236.9 160.726 239.139 160.726 241.9V252.033C160.726 254.794 158.488 257.033 155.726 257.033H145.822C143.061 257.033 140.822 254.794 140.822 252.033V241.9Z" fill="#183A71"/>
<path d="M212.476 241.9C212.476 239.139 214.715 236.9 217.476 236.9H227.38C230.141 236.9 232.38 239.139 232.38 241.9V252.033C232.38 254.794 230.141 257.033 227.38 257.033H217.476C214.715 257.033 212.476 254.794 212.476 252.033V241.9Z" fill="#183A71"/>
<path d="M249.298 241.9C249.298 239.139 251.537 236.9 254.298 236.9H264.202C266.964 236.9 269.202 239.139 269.202 241.9V252.033C269.202 254.794 266.964 257.033 264.202 257.033H254.298C251.537 257.033 249.298 254.794 249.298 252.033V241.9Z" fill="#183A71"/>
<path d="M137.634 187.927V183.785L134.705 180.856L117.349 163.5L134.705 146.144L137.634 143.215V139.073V114.53H162.177H166.319L169.248 111.601L186.602 94.2472L203.955 111.601L206.884 114.53H211.026H235.572V139.076V143.218L238.501 146.147L255.854 163.5L238.501 180.853L235.572 183.782V187.924V212.468H211.029H206.887L203.958 215.397L186.602 232.753L169.246 215.397L166.317 212.468H162.174H137.634V187.927Z" stroke="white" stroke-width="20"/>
</g>
</svg>
